<?xml version="1.0" encoding="utf-8"?><svg viewBox="0 0 565 544" xmlns="http://www.w3.org/2000/svg" xmlns:xlink="http://www.w3.org/1999/xlink"><style>:root>svg{display:none}:root>svg:target{display:block}</style><svg viewBox="0 0 15 18" id="arrowTop" xmlns="http://www.w3.org/2000/svg"><g clip-path="url(#aa)"><path d="M6.84 1.063L2.759 5.146a.583.583 0 00.824.825L6.67 2.883v13.259a.583.583 0 101.167 0V2.883l3.087 3.088a.583.583 0 10.825-.825L7.666 1.063a.583.583 0 00-.825 0z"/></g><defs><clipPath id="aa"><path transform="rotate(-90 8.78 8.528)" d="M0 0h17v14H0z"/></clipPath></defs></svg><svg viewBox="0 0 15 18" id="arrowTopWhite" xmlns="http://www.w3.org/2000/svg"><g clip-path="url(#ba)"><path d="M6.978.815L2.894 4.9a.583.583 0 00.825.825l3.088-3.088v13.259a.583.583 0 001.166 0V2.636l3.088 3.088a.584.584 0 10.825-.825L7.802.815a.583.583 0 00-.824 0z"/></g><defs><clipPath id="ba"><path transform="rotate(-90 8.725 8.336)" d="M0 0h17v14H0z"/></clipPath></defs></svg><svg viewBox="0 0 56 52" id="check" xmlns="http://www.w3.org/2000/svg"><g clip-path="url(#ca)" stroke-width=".691"><path d="M48.022 7.504c-7.83-7.724-19.8-8.875-28.866-3.459l-6.27 3.805a23.58 23.58 0 00-4.728 3.613 23.036 23.036 0 000 32.89c7.83 7.725 19.796 8.875 28.866 3.46l6.27-3.808a23.578 23.578 0 004.728-3.613 23.036 23.036 0 000-32.89v.002z"/><path d="M31.35 47.205c13.02 0 23.576-10.413 23.576-23.257C54.926 11.104 44.371.691 31.35.691 18.33.691 7.774 11.104 7.774 23.948c0 12.844 10.556 23.257 23.576 23.257z"/><path d="M31.35 47.205c13.02 0 23.576-10.413 23.576-23.257C54.926 11.104 44.371.691 31.35.691 18.33.691 7.774 11.104 7.774 23.948c0 12.844 10.556 23.257 23.576 23.257z"/><path d="M37.736 14.85l-8.16 8.048a.507.507 0 01-.709 0l-3.902-3.85a1.015 1.015 0 00-1.42 0l-3.546 3.499a.982.982 0 000 1.4l4.256 4.199 4.256 4.198a1.015 1.015 0 001.42 0l4.256-4.198 8.512-8.397a.982.982 0 000-1.4l-3.546-3.499a1.015 1.015 0 00-1.42 0h.003z"/></g><defs><clipPath id="ca"><path transform="translate(.753)" d="M0 0h54.618v51.852H0z"/></clipPath></defs></svg><svg viewBox="0 0 224 58" id="logo" xmlns="http://www.w3.org/2000/svg"><g clip-path="url(#da)" fill-rule="evenodd" clip-rule="evenodd"><path d="M8.085 51.268l4.27-5.012h1.96l-4.8 5.594 5.144 5.913h-2.092l-4.482-5.224v5.197h-1.51V52.54l-4.482 5.197H0l5.144-5.912-4.8-5.59h1.96l4.27 5.011v-5.011h1.51v5.038-.004zm18.717 6.468h-1.51v-9.012l-6.177 9.012h-1.643v-11.48h1.51v9.043l6.178-9.043h1.642v11.48zm10.262-3.263c0 2.12-1.537 3.475-3.581 3.475-1.722 0-3.047-.953-3.396-1.854l.424-1.378c.742 1.06 1.828 1.59 2.994 1.59 1.272 0 2.066-.742 2.066-1.908 0-.954-.741-1.854-2.198-1.854h-.98V50.9h1.006c1.113 0 1.722-.768 1.722-1.643 0-.874-.636-1.563-1.59-1.563-1.112 0-1.96.583-2.596 1.431l-.318-1.457c.477-.874 1.59-1.59 2.888-1.59 1.854 0 3.13 1.298 3.13 3.078 0 .98-.423 1.881-1.139 2.41.928.53 1.563 1.538 1.563 2.915l.005-.009zm3.475-8.217h1.51v4.773h6.23v-4.773h1.51v11.48h-1.51v-5.09h-6.23v5.09h-1.51v-11.48zm13.335 11.48v-11.48h1.51v4.508h1.722c2.12 0 3.607 1.43 3.607 3.475s-1.563 3.502-3.607 3.502h-3.237l.005-.005zm3.475-1.616c1.06 0 1.828-.821 1.828-1.88 0-1.114-.795-1.882-1.828-1.882h-1.96v3.74h1.96v.027-.005zM45.815 22.74h9.202v-7.08h4.111v19.115h-4.11v-7.661h-9.203v7.66h-4.11v-19.11h4.11v7.078-.004zm96.241 11.957V32.71s-2.093 2.517-5.78 2.517c-4.773 0-9.811-3.502-9.811-10.023 0-7.317 5.303-10.103 9.52-10.103 3.713 0 5.992 2.437 5.992 2.437v-1.934h3.978v19.115h-3.899v-.026.004zm-11.507-9.493c0 2.49 1.934 5.568 6.045 5.568 3.661 0 5.303-2.279 5.303-2.279v-6.76c-1.298-1.457-3.183-2.252-5.303-2.252-3.581.027-6.045 2.464-6.045 5.727v-.004zm25.557-2.464h9.202v-7.08h4.111v19.115h-4.111v-7.661h-9.202v7.66h-4.111v-19.11h4.111v7.078-.004zm38.76 12.037h5.276V29.5h-5.276v5.277zM17.154 16.142c0 4.402-3.077 8.244-8.64 8.244H5.09v10.368H.821V7.709h7.661c4.88 0 8.668 3.448 8.668 8.429l.004.004zm-12.142 3.82h4.031c1.06 0 1.96-.345 2.676-1.007.715-.689 1.086-1.59 1.086-2.702 0-1.113-.344-1.961-1.007-2.676-.688-.716-1.59-1.086-2.676-1.086h-4.11v7.475-.004zM95.605 35.34c-4.64 0-9.89-3.528-9.89-10.076 0-5.78 4.322-10.024 9.916-10.024 3.952 0 6.522 2.385 6.999 3.237l-1.139 3.395s-2.411-2.251-5.277-2.251c-4.429 0-6.363 3.104-6.363 5.62 0 3.528 2.703 5.701 6.416 5.701 2.676 0 4.985-1.616 5.515-2.226l1.192 3.396c.027 0-2.596 3.237-7.37 3.237v-.01zm20.519 0c-4.641 0-9.891-3.528-9.891-10.076 0-5.78 4.323-10.024 9.917-10.024 3.952 0 6.522 2.385 6.999 3.237l-1.139 3.395s-2.411-2.251-5.277-2.251c-4.429 0-6.363 3.104-6.363 5.62 0 3.528 2.703 5.701 6.416 5.701 2.676 0 4.985-1.616 5.515-2.226l1.192 3.396c.027 0-2.623 3.237-7.369 3.237v-.01zm67.261 0c-4.64 0-9.89-3.528-9.89-10.076 0-5.78 4.322-10.024 9.917-10.024 3.952 0 6.522 2.385 6.999 3.237l-1.14 3.395s-2.411-2.251-5.276-2.251c-4.429 0-6.363 3.104-6.363 5.62 0 3.528 2.702 5.701 6.416 5.701 2.676 0 4.985-1.616 5.515-2.226l1.192 3.396c.026 0-2.623 3.237-7.37 3.237v-.01zM73.942 31.203c3.396 0 5.383-1.854 5.913-2.516l1.192 3.21c-.265.45-2.967 3.501-7.21 3.501-5.86 0-10.077-3.846-10.077-10.023 0-4.694 3.13-10.076 9.573-10.076 5.62 0 9.122 4.588 9.122 9.917 0 .556-.026 1.06-.105 1.51H67.955c.212 1.457 1.854 4.482 5.992 4.482l-.005-.005zm-.768-11.612c-3.66 0-5.012 2.649-5.197 3.74h10.368c-.424-1.881-2.173-3.74-5.171-3.74zM28.741 31.203c3.395 0 5.382-1.854 5.912-2.516l1.192 3.21c-.265.45-2.967 3.501-7.21 3.501-5.86 0-10.077-3.846-10.077-10.023 0-4.694 3.131-10.076 9.573-10.076 5.621 0 9.123 4.588 9.123 9.917 0 .556-.027 1.06-.106 1.51h-14.4c.213 1.457 1.855 4.482 5.993 4.482v-.005zm-.769-11.612c-3.66 0-5.011 2.649-5.197 3.74h10.368c-.424-1.881-2.172-3.74-5.17-3.74zM209.397 27.114L194.866.047h29.058l-14.527 27.067z"/></g><defs><clipPath id="da"><path transform="translate(0 .047)" d="M0 0h223.924v57.905H0z"/></clipPath></defs></svg><svg viewBox="0 0 212 56" id="logoWhite" xmlns="http://www.w3.org/2000/svg"><g clip-path="url(#ea)" fill-rule="evenodd" clip-rule="evenodd"><path d="M7.623 48.968l4.025-4.725h1.849L8.97 49.518l4.85 5.574h-1.973l-4.225-4.925v4.9H6.199v-4.9l-4.226 4.9H0l4.85-5.574-4.525-5.27h1.848L6.2 48.946v-4.725h1.424v4.75-.004zm17.647 6.099h-1.424V46.57l-5.824 8.497h-1.549V44.243h1.424v8.526l5.824-8.526h1.549v10.824zm9.675-3.077c0 1.999-1.45 3.277-3.377 3.277-1.623 0-2.872-.9-3.201-1.749l.4-1.299c.699 1 1.723 1.5 2.822 1.5 1.2 0 1.948-.7 1.948-1.8 0-.898-.699-1.748-2.073-1.748h-.924v-1.548h.95c1.048 0 1.623-.725 1.623-1.549s-.6-1.474-1.499-1.474c-1.049 0-1.848.55-2.448 1.35l-.3-1.375c.45-.824 1.5-1.498 2.723-1.498 1.749 0 2.952 1.224 2.952 2.901 0 .924-.4 1.774-1.074 2.273.874.5 1.473 1.449 1.473 2.748l.005-.009zm3.276-7.747h1.424v4.5h5.874v-4.5h1.423v10.824H45.52v-4.8h-5.874v4.8H38.22V44.243zm12.572 10.824V44.243h1.424v4.25h1.624c1.998 0 3.4 1.35 3.4 3.277s-1.473 3.301-3.4 3.301h-3.052l.004-.004zm3.277-1.524c.999 0 1.723-.774 1.723-1.773 0-1.05-.75-1.774-1.723-1.774h-1.85v3.526h1.849v.026-.005zM43.196 22.071h8.675v-6.674h3.876V33.42h-3.876v-7.223h-8.675v7.223H39.32V15.402h3.876v6.673-.004zm90.737 11.273v-1.873s-1.973 2.373-5.449 2.373c-4.5 0-9.25-3.301-9.25-9.45 0-6.898 4.999-9.525 8.975-9.525 3.501 0 5.649 2.298 5.649 2.298v-1.824h3.751v18.022h-3.676v-.025.004zm-10.849-8.95c0 2.348 1.824 5.25 5.7 5.25 3.451 0 4.999-2.149 4.999-2.149v-6.373c-1.223-1.374-3.001-2.124-4.999-2.124-3.377.025-5.7 2.323-5.7 5.4v-.004zm24.096-2.323h8.676v-6.674h3.876V33.42h-3.876v-7.223h-8.676v7.223h-3.876V15.402h3.876v6.673-.004zm36.543 11.348h4.975v-4.975h-4.975v4.975zM16.173 15.851c0 4.15-2.901 7.773-8.147 7.773H4.8v9.774H.774V7.9h7.223c4.6 0 8.172 3.251 8.172 7.947l.004.004zM4.725 19.452h3.8c1 0 1.85-.325 2.524-.949.674-.65 1.024-1.499 1.024-2.548s-.325-1.848-.95-2.523c-.649-.674-1.498-1.024-2.522-1.024H4.725v7.048-.004zm85.413 14.5c-4.375 0-9.325-3.326-9.325-9.5 0-5.45 4.075-9.45 9.35-9.45 3.726 0 6.149 2.248 6.599 3.051l-1.075 3.202s-2.272-2.123-4.974-2.123c-4.176 0-6 2.926-6 5.3 0 3.326 2.549 5.374 6.05 5.374 2.522 0 4.7-1.524 5.2-2.099l1.123 3.202c.025 0-2.448 3.051-6.948 3.051v-.008zm19.346 0c-4.376 0-9.325-3.326-9.325-9.5 0-5.45 4.075-9.45 9.35-9.45 3.726 0 6.149 2.248 6.598 3.051l-1.074 3.202s-2.273-2.123-4.975-2.123c-4.175 0-5.999 2.926-5.999 5.3 0 3.326 2.548 5.374 6.049 5.374 2.523 0 4.7-1.524 5.2-2.099l1.124 3.202c.025 0-2.473 3.051-6.948 3.051v-.008zm63.415 0c-4.375 0-9.325-3.326-9.325-9.5 0-5.45 4.076-9.45 9.35-9.45 3.726 0 6.149 2.248 6.599 3.051l-1.074 3.202s-2.273-2.123-4.975-2.123c-4.176 0-5.999 2.926-5.999 5.3 0 3.326 2.548 5.374 6.049 5.374 2.523 0 4.7-1.524 5.199-2.099l1.124 3.202c.025 0-2.472 3.051-6.948 3.051v-.008zm-103.185-3.9c3.202 0 5.075-1.75 5.575-2.374l1.124 3.027c-.25.425-2.798 3.301-6.799 3.301-5.524 0-9.5-3.626-9.5-9.45 0-4.425 2.952-9.5 9.026-9.5 5.3 0 8.6 4.325 8.6 9.35 0 .525-.024 1-.1 1.424H64.07c.199 1.374 1.748 4.226 5.648 4.226l-.004-.005zm-.724-10.95c-3.451 0-4.725 2.498-4.9 3.527h9.775c-.4-1.774-2.048-3.527-4.875-3.527zm-41.893 10.95c3.202 0 5.075-1.75 5.575-2.374l1.124 3.027c-.25.425-2.798 3.301-6.799 3.301-5.524 0-9.5-3.626-9.5-9.45 0-4.425 2.952-9.5 9.026-9.5 5.3 0 8.6 4.325 8.6 9.35 0 .525-.024 1-.1 1.424H21.449c.2 1.374 1.748 4.226 5.65 4.226v-.005zm-.724-10.95c-3.451 0-4.725 2.498-4.9 3.527h9.775c-.4-1.774-2.048-3.527-4.875-3.527zM197.424 26.196L183.723.676h27.397l-13.696 25.52z"/></g><defs><clipPath id="ea"><path transform="translate(0 .677)" d="M0 0h211.12v54.594H0z"/></clipPath></defs></svg><svg viewBox="0 0 565 544" id="phoneQr" xmlns="http://www.w3.org/2000/svg"><path d="M59.69 159.108c-5.766-27.623 11.952-54.691 39.576-60.457l216.319-45.157c27.623-5.767 54.691 11.951 60.457 39.575l111.375 533.504c5.766 27.624-11.952 54.691-39.576 60.458l-216.319 45.157c-27.623 5.767-54.691-11.952-60.458-39.575L59.69 159.108z"/><mask id="fa" maskUnits="userSpaceOnUse" x="58" y="52" width="431" height="682"><path fill-rule="evenodd" clip-rule="evenodd" d="M59.69 159.109c-5.766-27.624 11.952-54.692 39.576-60.458l216.319-45.157c27.623-5.767 54.691 11.952 60.458 39.575l111.374 533.504c5.766 27.623-11.952 54.691-39.575 60.458l-216.32 45.157c-27.623 5.767-54.691-11.952-60.457-39.575L59.691 159.109z"/></mask><g mask="url(#fa)"><path d="M99.565 100.082l216.319-45.157-.597-2.864L98.967 97.22l.598 2.863zm275.047-6.715l111.374 533.505 2.863-.598L377.475 92.77l-2.863.597zM447.544 685.6l-216.32 45.157.598 2.863 216.319-45.157-.597-2.863zm-275.047 6.715L61.123 158.809l-2.863.598 111.374 533.504 2.863-.597zm58.727 38.442c-26.832 5.601-53.125-11.61-58.727-38.442l-2.863.597c5.931 28.414 33.774 46.64 62.188 40.708l-.598-2.863zm254.762-103.884c5.601 26.832-11.61 53.125-38.442 58.727l.597 2.863c28.414-5.931 46.64-33.774 40.708-62.188l-2.863.598zM315.884 54.925c26.833-5.602 53.126 11.61 58.728 38.442l2.863-.597c-5.932-28.414-33.774-46.64-62.188-40.709l.597 2.864zM98.967 97.219c-28.413 5.931-46.639 33.774-40.707 62.188l2.863-.598c-5.601-26.833 11.61-53.126 38.442-58.727l-.597-2.863z"/></g><path d="M64.798 125.619l46.683-9.739 6.793 32.56-56.89 11.868c-2.972-14.244-1.684-24.423 3.414-34.689z"/><path d="M76.227 155.676c-5.767-27.623 11.951-54.691 39.575-60.458l216.319-45.157c27.623-5.766 54.691 11.952 60.458 39.575l111.374 533.505c5.766 27.623-11.952 54.691-39.575 60.457l-216.32 45.158c-27.623 5.766-54.691-11.952-60.457-39.576L76.227 155.676z"/><mask id="fb" maskUnits="userSpaceOnUse" x="75" y="48" width="431" height="682"><path fill-rule="evenodd" clip-rule="evenodd" d="M76.228 155.676c-5.767-27.624 11.952-54.691 39.575-60.458l216.319-45.157c27.623-5.767 54.691 11.952 60.458 39.575L503.954 623.14c5.766 27.624-11.952 54.691-39.575 60.458L248.06 728.755c-27.624 5.767-54.692-11.952-60.458-39.575L76.228 155.676z"/></mask><g mask="url(#fb)"><path d="M116.102 96.65l216.32-45.157-.598-2.864-216.319 45.158.597 2.863zm275.047-6.715L502.523 623.44l2.863-.598L394.012 89.337l-2.863.598zm72.932 592.232l-216.319 45.157.597 2.863 216.319-45.157-.597-2.863zm-275.047 6.714L77.66 155.377l-2.863.598L186.17 689.479l2.863-.598zm58.728 38.443c-26.833 5.601-53.126-11.61-58.728-38.443l-2.863.598c5.932 28.414 33.774 46.64 62.188 40.708l-.597-2.863zM502.523 623.44c5.601 26.832-11.61 53.125-38.442 58.727l.597 2.863c28.414-5.932 46.64-33.774 40.708-62.188l-2.863.598zM332.422 51.493c26.832-5.602 53.125 11.61 58.727 38.442l2.863-.598c-5.931-28.414-33.774-46.64-62.188-40.708l.598 2.864zM115.505 93.787c-28.414 5.931-46.64 33.774-40.708 62.188l2.863-.598c-5.601-26.833 11.61-53.126 38.442-58.727l-.597-2.863z"/></g><path d="M92.305 152.916c-4.12-19.731 8.537-39.065 28.268-43.184l38.288-7.992a8.727 8.727 0 0110.326 6.759c1.674 8.02 9.533 13.165 17.554 11.491l87.971-18.365c8.447-1.763 13.89-10.01 12.19-18.47-1.01-5.03 2.27-9.92 7.308-10.892l42.553-8.215c19.58-3.78 38.569 8.855 42.644 28.376L490.629 625.2c4.119 19.731-8.537 39.065-28.268 43.184l-215.762 45.041c-19.731 4.119-39.065-8.537-43.184-28.268l-111.11-532.24z"/><mask id="fc" maskUnits="userSpaceOnUse" x="91" y="63" width="401" height="652"><path fill-rule="evenodd" clip-rule="evenodd" d="M92.305 152.916c-4.12-19.73 8.537-39.065 28.268-43.183l38.288-7.993a8.727 8.727 0 0110.326 6.759c1.674 8.021 9.534 13.165 17.554 11.491l87.971-18.364c8.447-1.764 13.89-10.01 12.19-18.47a9.241 9.241 0 017.308-10.893l42.554-8.215c19.579-3.78 38.568 8.856 42.644 28.376L490.629 625.2c4.119 19.731-8.537 39.065-28.268 43.184l-215.762 45.041c-19.731 4.119-39.065-8.537-43.184-28.268l-111.11-532.24z"/></mask><g mask="url(#fc)"><path d="M377.975 92.723l111.222 532.775 2.863-.598L380.838 92.125l-2.863.598zm84.087 574.228l-215.763 45.041.598 2.864 215.762-45.042-.597-2.863zm-257.216 17.906l-111.11-532.24-2.864.598 111.11 532.24 2.864-.598zm-83.975-573.694l38.288-7.992-.598-2.864-38.288 7.993.598 2.863zm173.615-37.465l42.554-8.215-.555-2.872-42.553 8.215.554 2.872zm-107.447 47.723l87.971-18.364-.598-2.864-87.971 18.365.598 2.863zm-19.285-12.624c1.84 8.811 10.474 14.463 19.285 12.624l-.598-2.863c-7.23 1.509-14.314-3.129-15.824-10.359l-2.863.598zm126.178-37.97c-5.835 1.126-9.635 6.79-8.465 12.616l2.868-.576a7.778 7.778 0 016.151-9.169l-.554-2.872zM159.159 103.17a7.264 7.264 0 018.595 5.626l2.863-.598c-1.149-5.508-6.547-9.041-12.056-7.892l.598 2.864zm126.308-19.728c1.542 7.672-3.394 15.151-11.055 16.75l.598 2.864c9.233-1.928 15.183-10.943 13.325-20.19l-2.868.576zm-39.168 628.549c-18.94 3.954-37.499-8.195-41.453-27.135l-2.864.598c4.284 20.521 24.393 33.684 44.915 29.401l-.598-2.864zm242.898-86.494c3.954 18.94-8.195 37.499-27.135 41.453l.597 2.863c20.522-4.283 33.685-24.392 29.401-44.914l-2.863.598zM380.838 92.125C376.6 71.822 356.85 58.68 336.485 62.61l.555 2.872c18.795-3.628 37.023 8.501 40.935 27.24l2.863-.598zM93.735 152.617c-3.953-18.94 8.195-37.5 27.136-41.454l-.598-2.863c-20.522 4.284-33.685 24.393-29.4 44.915l2.862-.598z"/></g><path fill-rule="evenodd" clip-rule="evenodd" d="M411.847 212.216L183.469 108.533l12.105-26.34 213.374 98.078 2.899 31.945zm-11.04-43.672l-174.37-80.099 3.038-6.607 174.369 80.098-3.037 6.608z"/><mask id="fd" maskUnits="userSpaceOnUse" x="180" y="99" width="12" height="12"><path fill-rule="evenodd" clip-rule="evenodd" d="M191.314 103.514c.626 2.997-1.352 5.946-4.417 6.585-3.065.64-6.057-1.271-6.683-4.268-.625-2.996 1.352-5.945 4.417-6.585 3.066-.64 6.058 1.271 6.683 4.268z"/></mask><g mask="url(#fd)"><path d="M189.882 103.813c.454 2.176-.979 4.374-3.284 4.855l.597 2.863c3.826-.798 6.347-4.498 5.55-8.315l-2.863.597zm-3.284 4.855c-2.305.481-4.498-.959-4.953-3.135l-2.863.597c.797 3.818 4.588 6.2 8.413 5.401l-.597-2.863zm-4.953-3.135c-.454-2.176.98-4.374 3.285-4.855l-.598-2.863c-3.825.798-6.347 4.498-5.55 8.315l2.863-.597zm3.285-4.855c2.305-.481 4.498.959 4.952 3.135l2.863-.597c-.797-3.818-4.588-6.2-8.413-5.401l.598 2.863z"/></g><path d="M194.089 102.932a5.543 5.543 0 014.293-6.56l61.298-12.796a5.543 5.543 0 112.265 10.853l-61.297 12.796a5.542 5.542 0 01-6.559-4.293z"/><mask id="fe" maskUnits="userSpaceOnUse" x="193" y="83" width="74" height="25"><path fill-rule="evenodd" clip-rule="evenodd" d="M194.089 102.932a5.544 5.544 0 014.294-6.56l61.297-12.796a5.543 5.543 0 016.559 4.294 5.543 5.543 0 01-4.293 6.56l-61.298 12.795a5.543 5.543 0 01-6.559-4.293z"/></mask><g mask="url(#fe)"><path d="M198.681 97.804l61.298-12.796-.598-2.863-61.297 12.796.597 2.863zm62.966-4.806l-61.298 12.796.598 2.863 61.298-12.796-.598-2.863zm-61.298 12.796a4.08 4.08 0 01-4.828-3.161l-2.864.598a7.006 7.006 0 008.29 5.426l-.598-2.863zm64.459-17.625a4.082 4.082 0 01-3.161 4.829l.598 2.863a7.006 7.006 0 005.426-8.29l-2.863.598zm-4.829-3.16a4.082 4.082 0 014.829 3.16l2.863-.598a7.006 7.006 0 00-8.29-5.426l.598 2.863zm-61.895 9.932a7.006 7.006 0 00-5.427 8.29l2.864-.598a4.08 4.08 0 013.16-4.829l-.597-2.863z"/></g><path d="M89.927 257.258a5.668 5.668 0 016.694 4.412l10.761 52.401a5.67 5.67 0 01-11.107 2.282l-10.761-52.4a5.67 5.67 0 014.413-6.695z"/><mask id="ff" maskUnits="userSpaceOnUse" x="85" y="257" width="23" height="64"><path fill-rule="evenodd" clip-rule="evenodd" d="M89.928 257.258a5.668 5.668 0 016.694 4.412l10.762 52.401a5.669 5.669 0 11-11.108 2.282l-10.761-52.4a5.67 5.67 0 014.413-6.695z"/></mask><g mask="url(#ff)"><path d="M95.19 261.965l10.762 52.401 2.865-.589-10.761-52.401-2.865.589zm2.52 54.095l-10.762-52.401-2.865.589 10.762 52.4 2.865-.588zm-10.762-52.401a4.207 4.207 0 013.275-4.968l-.588-2.866a7.134 7.134 0 00-5.552 8.423l2.865-.589zm15.729 55.675a4.207 4.207 0 01-4.967-3.274l-2.865.588a7.131 7.131 0 008.421 5.551l-.589-2.865zm3.275-4.968a4.208 4.208 0 01-3.275 4.968l.589 2.865a7.133 7.133 0 005.551-8.422l-2.865.589zm-7.896-52.99a7.132 7.132 0 00-8.421-5.551l.588 2.866a4.206 4.206 0 014.968 3.274l2.865-.589z"/></g><path d="M103.396 322.139a5.669 5.669 0 016.695 4.412l10.761 52.401a5.67 5.67 0 01-11.107 2.282l-10.762-52.4a5.67 5.67 0 014.413-6.695z"/><mask id="fg" maskUnits="userSpaceOnUse" x="98" y="322" width="23" height="64"><path fill-rule="evenodd" clip-rule="evenodd" d="M103.398 322.139a5.668 5.668 0 016.694 4.412l10.761 52.401a5.669 5.669 0 11-11.107 2.282l-10.761-52.4a5.67 5.67 0 014.413-6.695z"/></mask><g mask="url(#fg)"><path d="M108.659 326.846l10.762 52.401 2.865-.589-10.762-52.401-2.865.589zm2.52 54.095l-10.762-52.401-2.865.589 10.761 52.4 2.866-.588zm-10.762-52.401a4.208 4.208 0 013.275-4.968l-.589-2.865a7.133 7.133 0 00-5.551 8.422l2.865-.589zm15.729 55.675a4.206 4.206 0 01-4.967-3.274l-2.866.588a7.131 7.131 0 008.421 5.551l-.588-2.865zm3.275-4.968a4.208 4.208 0 01-3.275 4.968l.588 2.865a7.134 7.134 0 005.552-8.422l-2.865.589zm-7.897-52.99a7.13 7.13 0 00-8.421-5.55l.589 2.865a4.206 4.206 0 014.967 3.274l2.865-.589z"/></g><mask id="fh" maskUnits="userSpaceOnUse" x="91" y="63" width="401" height="652"><path fill-rule="evenodd" clip-rule="evenodd" d="M92.305 152.916c-4.12-19.73 8.537-39.065 28.268-43.183l38.288-7.993a8.727 8.727 0 0110.326 6.759c1.674 8.021 9.534 13.165 17.554 11.491l87.971-18.364c8.447-1.764 13.89-10.01 12.19-18.47a9.241 9.241 0 017.308-10.893l42.554-8.215c19.579-3.78 38.568 8.856 42.644 28.376L490.629 625.2c4.119 19.731-8.537 39.065-28.268 43.184l-215.762 45.041c-19.731 4.119-39.065-8.537-43.184-28.268l-111.11-532.24z"/></mask><g mask="url(#fh)"><path d="M377.975 92.723l111.222 532.775 2.863-.598L380.838 92.125l-2.863.598zm84.087 574.228l-215.763 45.041.598 2.864 215.762-45.042-.597-2.863zm-257.216 17.906l-111.11-532.24-2.864.598 111.11 532.24 2.864-.598zm-83.975-573.694l38.288-7.992-.598-2.864-38.288 7.993.598 2.863zm173.615-37.465l42.554-8.215-.555-2.872-42.553 8.215.554 2.872zm-107.447 47.723l87.971-18.364-.598-2.864-87.971 18.365.598 2.863zm-19.285-12.624c1.84 8.811 10.474 14.463 19.285 12.624l-.598-2.863c-7.23 1.509-14.314-3.129-15.824-10.359l-2.863.598zm126.178-37.97c-5.835 1.126-9.635 6.79-8.465 12.616l2.868-.576a7.778 7.778 0 016.151-9.169l-.554-2.872zM159.159 103.17a7.264 7.264 0 018.595 5.626l2.863-.598c-1.149-5.508-6.547-9.041-12.056-7.892l.598 2.864zm126.308-19.728c1.542 7.672-3.394 15.151-11.055 16.75l.598 2.864c9.233-1.928 15.183-10.943 13.325-20.19l-2.868.576zm-39.168 628.549c-18.94 3.954-37.499-8.195-41.453-27.135l-2.864.598c4.284 20.521 24.393 33.684 44.915 29.401l-.598-2.864zm242.898-86.494c3.954 18.94-8.195 37.499-27.135 41.453l.597 2.863c20.522-4.283 33.685-24.392 29.401-44.914l-2.863.598zM380.838 92.125C376.6 71.822 356.85 58.68 336.485 62.61l.555 2.872c18.795-3.628 37.023 8.501 40.935 27.24l2.863-.598zM93.735 152.617c-3.953-18.94 8.195-37.5 27.136-41.454l-.598-2.863c-20.522 4.284-33.685 24.393-29.4 44.915l2.862-.598z"/></g><g clip-path="url(#fi)"><path d="M240.263 326.33l-40.046 9.201 9.2 40.046 40.047-9.2-9.201-40.047z"/><path d="M240.263 326.33l11.46-2.633 1.317 5.73-5.73 1.317 1.309 5.698 5.73-1.317-1.309-5.698 11.428-2.626 2.626 11.429-11.428 2.625 2.633 11.46-5.73 1.317 3.942 17.158-22.889 5.259 3.942 17.158 5.73-1.316 6.575 28.618-5.73 1.317-1.316-5.73-5.73 1.316-1.316-5.73 5.73-1.316-2.626-11.429-5.73 1.317-3.942-17.159-11.429 2.626 2.626 11.428 5.698-1.309 1.317 5.73-11.428 2.626-6.576-28.619 40.047-9.2-9.201-40.047z"/><path d="M251.724 323.697l17.158-3.942 1.316 5.73 5.73-1.317-1.316-5.73 5.698-1.309 2.626 11.429-5.698 1.309 1.316 5.73-5.73 1.316 2.633 11.46-5.73 1.317-1.316-5.73-5.73 1.316 1.316 5.73-5.698 1.309-2.633-11.46 11.428-2.625-2.626-11.429-11.428 2.626-1.316-5.73z"/><path d="M274.612 318.439l-5.73 1.316 1.316 5.73 5.73-1.316-1.316-5.73zm5.699-1.309l5.73-1.317 1.316 5.73 5.73-1.316 2.626 11.428-5.73 1.317-1.317-5.73-5.73 1.316-2.625-11.428z"/><path d="M291.771 314.497l-5.73 1.316 1.316 5.73 5.73-1.316-1.316-5.73z"/><path d="M291.771 314.497l11.428-2.626 2.626 11.428-5.699 1.31-1.309-5.699-5.73 1.317-1.316-5.73zM303.199 311.871l11.46-2.633 1.317 5.73-5.73 1.317 1.309 5.698-5.73 1.316-2.626-11.428z"/><path d="M314.659 309.238l11.429-2.626 9.2 40.047 40.079-9.208 3.942 17.158-5.73 1.317-2.626-11.428-5.73 1.316 1.316 5.73-17.158 3.942-1.316-5.73-11.46 2.633 3.942 17.158-5.699 1.31-2.625-11.429-5.73 1.317-2.633-11.46 5.73-1.317-1.317-5.73-5.73 1.317-1.309-5.699 5.73-1.316-1.316-5.73-5.73 1.316-1.317-5.73 5.73-1.316-2.625-11.428-5.73 1.316-1.317-5.73z"/><path d="M366.135 297.411l-40.047 9.201 9.201 40.047 40.046-9.201-9.2-40.047zM235.883 333.369l-28.618 6.575 6.575 28.619 28.618-6.575-6.575-28.619zM253.041 329.427l-5.73 1.316 1.316 5.73 5.73-1.316-1.316-5.73zm40.046-9.2l5.73-1.317 1.309 5.699 5.698-1.31 1.317 5.73-5.698 1.31 1.316 5.73-5.73 1.316 2.626 11.428-5.73 1.317 1.316 5.73-5.73 1.316-2.625-11.428 5.73-1.317-1.317-5.73-5.73 1.317-2.633-11.46 5.73-1.317 1.317 5.73 5.73-1.316-2.626-11.428zM315.976 314.968l-5.73 1.317 1.317 5.73 5.73-1.317-1.317-5.73z"/><path d="M315.976 314.968l5.73-1.316 2.626 11.428-5.73 1.317 1.316 5.73-5.73 1.316 1.317 5.73 5.73-1.316 1.309 5.698-5.73 1.316 1.316 5.73 5.73-1.316 2.633 11.46 5.73-1.317 2.626 11.429-5.73 1.316-1.317-5.73-5.73 1.317-1.309-5.699-5.73 1.317-1.316-5.73-5.699 1.309-1.316-5.73 5.698-1.309-5.258-22.889 5.73-1.316-1.317-5.73 5.73-1.316-1.309-5.699zM361.752 304.451l-28.618 6.575 6.575 28.618 28.618-6.575-6.575-28.618zM231.43 340.391l-17.159 3.942 3.942 17.159 17.159-3.942-3.942-17.159z"/><path d="M277.239 329.867l5.698-1.309 2.633 11.46-5.698 1.309 1.316 5.73 5.698-1.309 2.626 11.428 5.73-1.316 2.633 11.46-5.73 1.316 1.309 5.699-11.428 2.625-1.309-5.698-11.46 2.633-1.317-5.73 17.19-3.95-2.633-11.46-5.73 1.317 1.317 5.73-5.73 1.316-2.626-11.428 5.73-1.317-2.633-11.46 5.73-1.316-1.316-5.73zm34.316-7.884l-5.73 1.316 1.317 5.73 5.73-1.316-1.317-5.73zM357.331 311.466l-17.158 3.942 3.942 17.158 17.159-3.942-3.943-17.158z"/><path d="M301.443 330.338l5.698-1.309 5.259 22.888-5.699 1.31-1.316-5.73-5.73 1.316-2.626-11.428 5.73-1.317-1.316-5.73zm-33.031 13.622l-5.73 1.316 1.316 5.73 5.73-1.316-1.316-5.73zM285.601 340.011l-5.73 1.316 1.317 5.73 5.73-1.316-1.317-5.73z"/><path d="M291.3 338.701l-5.73 1.317 1.316 5.73 5.73-1.317-1.316-5.73zm28.618-6.574l-5.73 1.316 1.316 5.73 5.73-1.316-1.316-5.73zM325.648 330.81l-5.73 1.316 1.316 5.73 5.73-1.316-1.316-5.73zm-73.079 22.822l5.73-1.316 2.626 11.428 5.698-1.309-2.625-11.429 5.73-1.316 2.625 11.428 5.73-1.316-1.316-5.73 5.73-1.317 2.633 11.46-17.19 3.95 1.316 5.73-5.698 1.309-1.317-5.73-5.73 1.316-3.942-17.158z"/><path d="M264.03 350.999l-5.73 1.317 2.633 11.46 5.73-1.317-2.633-11.46zm35.626-2.185l-5.73 1.316 1.316 5.73 5.73-1.316-1.316-5.73z"/><path d="M305.385 347.497l-5.73 1.316 1.317 5.73 5.73-1.316-1.317-5.73zM322.543 343.555l-5.73 1.316 1.317 5.73 5.73-1.316-1.317-5.73z"/><path d="M328.274 342.238l-5.73 1.317 1.316 5.73 5.73-1.317-1.316-5.73zm-33.032 13.622l5.73-1.317 5.258 22.888-5.73 1.317-1.316-5.73-5.73 1.316-1.309-5.698 5.73-1.316-2.633-11.46z"/><path d="M300.972 354.543l5.73-1.316 1.316 5.73 5.698-1.309 1.317 5.73-5.698 1.309 2.625 11.428 5.699-1.309 1.316 5.73 5.73-1.316 1.316 5.73 5.73-1.317-1.316-5.73-5.73 1.317-2.633-11.46 5.73-1.317 1.317 5.73 5.73-1.316 2.632 11.46 5.699-1.309 1.309 5.698 11.46-2.633 2.633 11.46 5.73-1.317 1.316 5.73-17.19 3.95-2.633-11.46-5.698 1.309-1.316-5.73-5.73 1.317 1.316 5.73 5.73-1.317 1.317 5.73-5.73 1.317 1.316 5.73-5.73 1.316 2.626 11.428-5.73 1.317 1.316 5.73-5.698 1.309-2.633-11.46 5.698-1.309-3.942-17.159 5.73-1.316-1.316-5.73-5.73 1.316 1.316 5.73-17.158 3.943-1.317-5.73 5.73-1.317-1.309-5.698 5.73-1.317-1.316-5.73-5.73 1.317 1.316 5.73-5.73 1.316 1.309 5.699-5.73 1.316-1.309-5.698-5.698 1.309 1.309 5.698-5.73 1.317-2.626-11.429 5.73-1.316-1.316-5.73 5.698-1.309 1.317 5.73 5.73-1.317-1.317-5.73 5.73-1.316-5.258-22.889zM233.623 376.049l22.888-5.259 1.317 5.73 5.73-1.316 1.309 5.698-5.73 1.317 1.316 5.73 5.73-1.317-1.316-5.73 5.698-1.309 2.633 11.46-5.698 1.309 1.316 5.73-5.73 1.317-1.316-5.73-5.73 1.316-1.317-5.73-5.73 1.317-1.316-5.73 5.73-1.317-1.309-5.698-11.428 2.626 2.625 11.428-5.73 1.316-3.942-17.158z"/><path d="M262.242 369.474l-5.73 1.316 1.316 5.73 5.73-1.316-1.316-5.73zM336.606 352.389l11.46-2.633 1.316 5.73 17.158-3.942-1.316-5.73 5.73-1.316 2.626 11.428-28.619 6.575 2.633 11.46-5.73 1.316 1.317 5.73-5.699 1.31-2.633-11.46 5.699-1.31-3.942-17.158zm-118.825 33.332l11.428-2.626 3.942 17.159 5.73-1.317 2.626 11.429-5.73 1.316 1.316 5.73 5.73-1.316 1.317 5.73 5.73-1.317-6.575-28.618 5.698-1.309 1.317 5.73 5.73-1.317 1.316 5.73-5.73 1.317 1.309 5.698 5.73-1.316-1.309-5.699 5.73-1.316 1.309 5.698 11.429-2.626 2.632 11.46-5.698 1.31-1.316-5.73-5.73 1.316 1.316 5.73-5.73 1.317-1.316-5.73-5.73 1.316 1.316 5.73 5.73-1.316 1.317 5.73-11.429 2.625 1.309 5.699-17.19 3.949-2.625-11.428-5.699 1.309 2.626 11.428-5.73 1.317-7.884-34.317 11.428-2.626-1.316-5.73-5.699 1.309-2.625-11.428z"/><path d="M240.669 380.462l11.428-2.625 1.309 5.698-5.73 1.317 1.317 5.73-5.698 1.309-2.626-11.429zm28.619-6.574l-5.73 1.316 1.316 5.73 5.73-1.316-1.316-5.73z"/><path d="M280.685 371.269l-11.428 2.626 1.316 5.73 11.429-2.626-1.317-5.73zm28.65-6.582l5.698-1.309 1.309 5.698 5.73-1.317 2.633 11.46-5.73 1.317-1.316-5.73-5.698 1.309-2.626-11.428z"/><path d="M320.763 362.061l-5.73 1.317 1.316 5.73 5.73-1.317-1.316-5.73zm-55.895 18.841l-5.73 1.317 1.316 5.73 5.73-1.317-1.316-5.73zm17.126-3.935l-11.429 2.626 2.626 11.428 11.428-2.625-2.625-11.429zM282.025 376.96l11.429-2.625 1.316 5.73-5.698 1.309 1.316 5.73-5.73 1.316-2.633-11.46zM299.184 373.018l-5.73 1.317 1.317 5.73 5.73-1.317-1.317-5.73zm45.777-10.517l28.618-6.575 2.633 11.46 5.73-1.317 1.316 5.73-5.73 1.317 1.31 5.698-5.73 1.316-1.31-5.698-5.73 1.317-2.632-11.46-5.699 1.309 2.633 11.46-17.19 3.949-1.316-5.73 5.73-1.316-2.633-11.46z"/><path d="M379.309 354.609l-5.73 1.317 2.626 11.428 5.73-1.316-2.626-11.429zM254.723 389.265l-5.73 1.317 1.317 5.73 5.73-1.317-1.317-5.73zM300.5 378.748l-5.73 1.316 1.316 5.73 5.73-1.316-1.316-5.73zm57.237-13.15l5.698-1.309 2.633 11.46 5.73-1.316 1.309 5.698 5.73-1.317-1.309-5.698 5.73-1.316 5.259 22.888-5.73 1.316-2.633-11.46-11.46 2.633-1.317-5.73-5.698 1.31 2.633 11.46-5.73 1.316-2.633-11.46-11.46 2.633-1.309-5.698 17.19-3.95-2.633-11.46z"/><path d="M261.77 393.679l-5.73 1.316 1.317 5.73 5.73-1.316-1.317-5.73z"/><path d="M267.501 392.362l5.698-1.309 1.317 5.73 5.73-1.316 3.942 17.158 5.73-1.317 2.625 11.429-17.158 3.942-1.309-5.698-5.73 1.316 2.626 11.428-5.73 1.317-1.317-5.73-5.73 1.316 1.317 5.73 5.73-1.316 1.316 5.73-17.158 3.942-1.317-5.73-5.73 1.316 2.633 11.46 28.618-6.575 5.259 22.889 5.73-1.317 1.309 5.699 11.429-2.626 1.316 5.73-5.73 1.316 2.633 11.46-17.158 3.942-9.208-40.078-40.047 9.201-1.309-5.699 11.428-2.625-1.316-5.73-11.429 2.625-2.633-11.46 5.73-1.316-2.625-11.428 5.698-1.31 2.626 11.429 17.19-3.95-1.309-5.698 11.428-2.626-1.317-5.73 5.73-1.316-1.316-5.73 5.73-1.316 1.316 5.73 5.699-1.31-2.633-11.46-11.429 2.626-1.309-5.698 5.73-1.317-1.316-5.73z"/><path d="M273.199 391.053l11.46-2.633 2.626 11.428 5.73-1.316 1.316 5.73-5.73 1.316 1.317 5.73-5.73 1.317-3.942-17.158-5.73 1.316-1.317-5.73zm40.079-9.208l-5.73 1.317 1.316 5.73 5.73-1.317-1.316-5.73zm17.157-3.942l-5.73 1.316 1.316 5.73 5.73-1.316-1.316-5.73zM228.77 407.293l-5.73 1.316 2.633 11.46 5.73-1.316-2.633-11.46zm28.587-6.567l-5.73 1.316 1.316 5.73 5.73-1.316-1.316-5.73z"/><path d="M297.434 391.518l-5.73 1.316 1.317 5.73 5.73-1.316-1.317-5.73zm11.429-2.626l-5.73 1.316 1.316 5.73 5.73-1.316-1.316-5.73z"/><path d="M298.744 397.216l-5.73 1.316 1.316 5.73 5.73-1.316-1.316-5.73z"/><path d="M304.443 395.907l-5.73 1.316 1.316 5.73 5.73-1.316-1.316-5.73zm22.888-5.259l-5.73 1.317 1.316 5.73 5.73-1.317-1.316-5.73zm11.46-2.633l-5.73 1.317 1.316 5.73 5.73-1.317-1.316-5.73zM361.679 382.757l5.698-1.31 1.317 5.73 11.46-2.633 2.632 11.46-11.46 2.633-1.316-5.73-5.698 1.31-2.633-11.46zm-101.697 29.397l-5.73 1.316 1.316 5.73 5.73-1.316-1.316-5.73zm34.349-7.892l-5.73 1.317 1.316 5.73 5.73-1.317-1.316-5.73z"/><path d="M300.06 402.946l-5.73 1.316 1.317 5.73 5.73-1.316-1.317-5.73z"/><path d="M305.759 401.636l-5.73 1.317 1.317 5.73 5.73-1.317-1.317-5.73z"/><path d="M305.759 401.637l17.158-3.942 3.942 17.158-5.698 1.309-1.309-5.698-5.73 1.316-1.317-5.73-5.73 1.317-1.316-5.73zm34.348-7.892l5.699-1.309 2.632 11.46-11.428 2.626-1.316-5.73 5.73-1.317-1.317-5.73z"/><path d="M289.917 411.308l5.73-1.316 1.316 5.73 5.699-1.309-1.317-5.73 5.73-1.317 1.317 5.73 5.73-1.316 1.309 5.698-5.73 1.317 1.316 5.73-5.73 1.316-1.316-5.73-5.698 1.309 1.316 5.73-5.73 1.317 1.316 5.73-5.73 1.316-1.316-5.73-5.73 1.317 1.316 5.73-5.698 1.309-1.316-5.73-5.73 1.316-2.626-11.428 5.73-1.317 1.309 5.699 17.159-3.942-2.626-11.429z"/><path d="M301.377 408.676l-5.73 1.316 1.317 5.73 5.73-1.316-1.317-5.73zm11.428-2.626l-5.73 1.316 1.317 5.73 5.73-1.316-1.317-5.73zM370.042 392.899l-5.73 1.317 1.316 5.73 5.73-1.317-1.316-5.73z"/><path d="M319.852 410.464l-5.73 1.316 1.317 5.73 5.73-1.316-1.317-5.73zM331.28 407.838l5.73-1.317 2.625 11.429 5.73-1.317 1.317 5.73 5.698-1.309-3.942-17.158 17.19-3.95 1.309 5.699-11.46 2.632 1.317 5.73 17.158-3.942 1.316 5.73-5.698 1.31 2.626 11.428 5.698-1.309 3.949 17.19 5.73-1.317-1.316-5.73 5.73-1.316-2.633-11.46-5.73 1.316-3.942-17.158 5.73-1.317-1.317-5.73 5.73-1.316 2.633 11.46-5.73 1.316 1.317 5.73 5.73-1.316 5.258 22.888-5.73 1.317 1.31 5.698 5.73-1.316 2.633 11.46-5.73 1.316 1.316 5.73-5.73 1.317-2.633-11.46-5.73 1.316-1.316-5.73-5.699 1.309-1.309-5.698-22.888 5.258 1.309 5.699-17.19 3.949 1.316 5.73-11.428 2.626 1.316 5.73-5.73 1.316 1.317 5.73-5.73 1.317-1.317-5.73-5.698 1.309-1.316-5.73 5.698-1.309-3.942-17.159 22.888-5.258 1.317 5.73 5.73-1.317-1.317-5.73-5.73 1.317-2.633-11.46 5.73-1.317-1.309-5.698 5.73-1.316-1.316-5.73-5.73 1.316 1.316 5.73-11.428 2.626-1.317-5.73 5.699-1.309-1.317-5.731 5.73-1.316-2.625-11.428z"/><path d="M337.01 406.521l11.428-2.625 3.942 17.158-5.698 1.309-1.317-5.73-5.73 1.317-2.625-11.429zm28.619-6.575l5.698-1.309 2.626 11.428-17.159 3.942-1.316-5.73 11.46-2.632-1.309-5.699z"/><path d="M371.327 398.637l11.46-2.633 1.309 5.699-5.73 1.316 1.317 5.73-5.73 1.317-2.626-11.429z"/><path d="M388.516 394.688l-5.73 1.316 1.317 5.73 5.73-1.316-1.317-5.73zM263.925 429.312l-5.73 1.316 1.316 5.73 5.73-1.316-1.316-5.73zM298.273 421.421l5.698-1.309 1.317 5.73 5.73-1.317 2.633 11.46-5.73 1.317-1.317-5.73-5.698 1.309 1.316 5.73-28.618 6.575-2.633-11.46 5.73-1.317 1.316 5.73 5.699-1.309-1.317-5.73 5.73-1.316 1.317 5.73 5.73-1.317-1.317-5.73 5.73-1.316-1.316-5.73z"/><path d="M315.431 417.478l-5.73 1.317 1.317 5.73 5.73-1.317-1.317-5.73z"/><path d="M315.431 417.478l5.73-1.316 2.633 11.46-5.73 1.316 1.317 5.73-5.73 1.317-2.633-11.46 5.73-1.317-1.317-5.73zM384.096 401.702l-5.73 1.317 1.316 5.73 5.73-1.317-1.316-5.73zM242.353 440.3l5.73-1.316 1.316 5.73 17.158-3.942-1.316-5.73 5.73-1.317 2.633 11.46-28.619 6.575-2.632-11.46zM373.952 410.065l5.73-1.316 3.942 17.158 5.73-1.316 2.633 11.46-5.73 1.316 1.317 5.73-5.73 1.317-3.95-17.19-5.698 1.309-2.626-11.428 5.698-1.31-1.316-5.73z"/><path d="M237.938 447.347l-11.428 2.626 1.316 5.73 11.429-2.626-1.317-5.73zm62.967-14.466l5.699-1.31 1.316 5.73 5.73-1.316 1.309 5.698 5.73-1.316 1.317 5.73-11.46 2.633-1.317-5.73-5.698 1.309 1.316 5.73-11.46 2.633-1.316-5.73-5.73 1.316 1.316 5.73-5.698 1.309 1.316 5.73 5.699-1.309 1.316 5.73 17.19-3.949 2.626 11.428-5.73 1.317 1.316 5.73-5.73 1.316 1.317 5.73-5.73 1.317-2.633-11.46 5.73-1.317-1.317-5.73-11.428 2.626-1.309-5.699-5.73 1.317-5.259-22.888 28.619-6.575-1.317-5.73z"/><path d="M323.793 427.622l-5.73 1.316 1.317 5.73 5.73-1.316-1.317-5.73zm17.159-3.942l-5.73 1.316 1.317 5.73 5.73-1.316-1.317-5.73zm51.507-11.834l-5.73 1.317 1.316 5.73 5.73-1.317-1.316-5.73zm-73.079 22.822l-5.73 1.317 1.317 5.73 5.73-1.317-1.317-5.73z"/><path d="M325.111 433.352l-5.73 1.316 1.316 5.73 5.73-1.316-1.316-5.73z"/><path d="M325.11 433.352l11.429-2.626 1.309 5.699-5.73 1.316 2.633 11.46-22.888 5.259 3.942 17.158-5.699 1.309-2.625-11.428-17.19 3.949-1.317-5.73-5.698 1.309-1.317-5.73 5.699-1.309-1.317-5.73 5.73-1.316 1.317 5.73 11.46-2.633-1.317-5.73L309.23 443l1.316 5.73 11.46-2.633-1.316-5.73 5.73-1.317-1.31-5.698zm40.048-9.201L348 428.094l3.942 17.158 17.158-3.942-3.942-17.159z"/><path d="M269.183 452.2l-40.047 9.201 9.201 40.046 40.046-9.2-9.2-40.047zm91.553-21.034l-5.73 1.316 1.316 5.73 5.73-1.316-1.316-5.73z"/><path d="M264.801 459.239l-28.618 6.575 6.575 28.619 28.618-6.575-6.575-28.619z"/><path d="M260.357 466.293l-17.159 3.942 3.942 17.159 17.159-3.942-3.942-17.159zM340.481 447.885l-5.73 1.316 1.316 5.73 5.73-1.316-1.316-5.73zm12.776 3.097l22.889-5.259 1.309 5.699 5.698-1.31 1.317 5.73-11.429 2.626 2.633 11.46-17.158 3.942-1.317-5.73-11.459 2.633-1.317-5.73-5.73 1.316-1.316-5.729 17.19-3.95 1.316 5.73 5.698-1.309 1.317 5.73 5.73-1.317-1.317-5.73-5.73 1.317-1.316-5.73-5.698 1.309-1.31-5.698zm45.777-10.518l-5.73 1.317 1.316 5.73 5.73-1.317-1.316-5.73z"/><path d="M360.296 455.363l-5.73 1.317 1.317 5.73 5.73-1.317-1.317-5.73zM310.107 472.927l-5.73 1.316 1.316 5.73 5.73-1.316-1.316-5.73zm28.586-6.568l-11.428 2.626 1.316 5.73 11.428-2.626-1.316-5.73z"/><path d="M338.693 466.359l5.73-1.316 1.316 5.73 11.46-2.633 1.317 5.73-28.618 6.575-1.317-5.73 11.428-2.626-1.316-5.73zm28.619-6.575l-5.73 1.316 1.316 5.73 5.73-1.316-1.316-5.73zm17.157-3.942l-11.428 2.626 2.626 11.428 11.428-2.626-2.626-11.428z"/><path d="M390.199 454.526l-5.73 1.316 2.625 11.429 5.73-1.317-2.625-11.428zm-84.506 25.448l-5.73 1.316 1.316 5.73 5.73-1.316-1.316-5.73z"/><path d="M311.422 478.657l-5.73 1.316 1.317 5.73 5.73-1.316-1.317-5.73z"/><path d="M317.153 477.341l-5.73 1.316 1.316 5.73 5.73-1.316-1.316-5.73zm11.429-2.626l-5.73 1.317 1.316 5.73 5.73-1.317-1.316-5.73zm74.394-17.092l-5.73 1.316 1.317 5.73 5.73-1.316-1.317-5.73z"/></g><path d="M157.975 259.997l.797-.173c.387-1.513.63-2.991.73-4.437.099-1.45.075-2.984-.074-4.602l6.013-1.304 1.842 8.497 1.377-.299 1.047 4.828-2.111.457-.652-3.006-6.464 1.402.652 3.006-2.11.458-1.047-4.827zm3.584-7.768c.083 1.11.079 2.306-.013 3.587a24.697 24.697 0 01-.473 3.509l4.03-.874-1.448-6.676-2.096.454zm16.275 5.367l-2.153.467-1.361-6.274-1.983.43c.232 1.797.335 3.154.307 4.072-.029.912-.182 1.603-.459 2.072-.274.464-.703.758-1.286.885-.499.108-.925.122-1.277.041l-.374-1.722c.251.044.492.041.722-.009.269-.058.45-.3.545-.724.1-.426.123-1.103.069-2.033-.05-.935-.194-2.201-.432-3.8l5.97-1.295 1.712 7.89zm3.754-.814l-2.329.505 1.448-3.58c-.554-.102-1.007-.324-1.357-.666-.345-.344-.577-.787-.694-1.328-.165-.762-.01-1.421.465-1.978.48-.557 1.214-.943 2.202-1.157l3.67-.796 1.711 7.89-2.152.467-.637-2.936-1.186.257-1.141 3.322zm-.819-5.512a.93.93 0 00.557.692c.298.127.657.145 1.076.055l1.199-.261-.431-1.99-1.475.32c-.353.077-.612.224-.776.442a.868.868 0 00-.15.742zm17.978-6.471l1.712 7.89-2.16.468-1.361-6.274-2.858.62 1.361 6.274-2.153.467-1.711-7.89 7.17-1.555zm8.623 6.539c-.927.201-1.727.022-2.4-.536l-.113.024c.218.643.339 1.015.361 1.119l.693 3.197-2.152.467-2.464-11.363 1.75-.379.525.957.099-.021c.334-.89.995-1.443 1.983-1.657.932-.202 1.739 0 2.422.605.683.606 1.164 1.549 1.441 2.828.183.843.217 1.601.102 2.276-.11.674-.358 1.223-.744 1.647-.386.424-.887.702-1.503.836zm-2.036-6.32c-.532.115-.884.364-1.057.747-.175.377-.185.944-.031 1.699l.051.232c.183.847.44 1.427.769 1.74.333.312.773.409 1.319.29.964-.209 1.274-1.109.929-2.699-.168-.776-.414-1.331-.738-1.665-.32-.339-.734-.454-1.242-.344zm8.307 4.812l-2.329.505 1.448-3.58c-.554-.102-1.006-.324-1.357-.666-.345-.344-.576-.787-.694-1.328-.165-.762-.01-1.421.465-1.977.48-.558 1.215-.944 2.203-1.158l3.669-.796 1.712 7.89-2.153.467-.637-2.936-1.185.257-1.142 3.322zm-.819-5.512a.93.93 0 00.557.692c.298.127.657.145 1.076.055l1.2-.261-.432-1.99-1.475.32c-.353.077-.612.224-.776.442a.868.868 0 00-.15.742zm18.42 1.695l-2.012.436-1.348-6.218-.018.462c-.039 1.048-.104 1.848-.196 2.4l-.632 3.832-1.532.332-2.19-3.249c-.314-.474-.688-1.154-1.122-2.04l-.238-.451 1.348 6.218-2.004.434-1.711-7.89 2.964-.643 2.085 3.073c.22.331.439.72.659 1.165.224.444.394.828.509 1.153a32.57 32.57 0 01.031-1.595c.022-.33.056-.636.104-.917.047-.281.266-1.533.656-3.756l2.935-.637 1.712 7.891zm3.41-4.886c.17.781.425 1.344.766 1.689.345.344.807.453 1.386.328.574-.125.943-.412 1.106-.861.168-.455.166-1.076-.004-1.861-.17-.781-.424-1.339-.762-1.675-.339-.335-.798-.44-1.377-.315-.574.125-.945.41-1.115.855-.17.441-.17 1.055 0 1.84zm5.456-1.183c.278 1.285.157 2.363-.363 3.234-.52.872-1.385 1.438-2.594 1.701-.758.164-1.461.144-2.112-.06a3.402 3.402 0 01-1.644-1.143c-.445-.554-.758-1.244-.937-2.073-.28-1.289-.161-2.364.357-3.225.517-.861 1.386-1.424 2.604-1.688.758-.164 1.461-.144 2.112.059.65.204 1.197.581 1.641 1.13.444.549.756 1.237.936 2.065zm6.663-5.561l.35 1.616-3.295.715 1.36 6.274-2.152.467-1.711-7.89 5.448-1.182zm4.324 3.178c.17.781.425 1.344.766 1.689.345.344.807.453 1.386.327.574-.124.943-.411 1.106-.86.168-.455.166-1.076-.004-1.862-.17-.781-.424-1.339-.762-1.674-.339-.336-.798-.44-1.377-.315-.574.125-.945.41-1.115.855-.17.441-.17 1.054 0 1.84zm5.456-1.183c.278 1.284.157 2.362-.363 3.234-.52.871-1.385 1.438-2.594 1.7-.758.165-1.461.145-2.112-.059a3.409 3.409 0 01-1.644-1.143c-.445-.554-.758-1.245-.937-2.073-.28-1.289-.161-2.364.357-3.225.517-.861 1.386-1.424 2.604-1.688.758-.164 1.461-.145 2.112.059.65.204 1.197.58 1.641 1.129.444.549.756 1.238.936 2.066zm10.204 2.08c-2.456.533-3.976-.549-4.561-3.245-.291-1.341-.179-2.437.336-3.287.515-.856 1.395-1.418 2.642-1.689.912-.198 1.77-.197 2.572.004l-.274 1.803a10.134 10.134 0 00-1.018-.126 3.022 3.022 0 00-.904.055c-1.12.243-1.507 1.16-1.162 2.75.335 1.543 1.062 2.193 2.182 1.95a4.002 4.002 0 001.115-.411c.328-.19.643-.44.945-.752l.4 1.842c-.301.296-.62.526-.959.688-.335.161-.773.301-1.314.418zm5.349-5.453c.17.781.425 1.343.766 1.688.345.344.807.453 1.386.328.574-.125.943-.412 1.106-.861.168-.455.166-1.075-.004-1.861-.17-.781-.424-1.339-.763-1.675-.338-.335-.797-.44-1.376-.315-.574.125-.945.41-1.115.856-.17.441-.17 1.054 0 1.84zm5.456-1.184c.278 1.285.157 2.363-.363 3.234-.52.872-1.385 1.439-2.594 1.701-.758.164-1.462.144-2.112-.059a3.41 3.41 0 01-1.644-1.144c-.446-.553-.758-1.244-.938-2.072-.279-1.29-.16-2.365.358-3.226.517-.861 1.385-1.423 2.604-1.688.757-.164 1.461-.144 2.111.06.651.203 1.198.58 1.642 1.129.444.549.756 1.237.936 2.065zm4.782-3.704c-.456.099-.782.322-.978.67-.196.343-.256.784-.178 1.324l3.021-.655c-.125-.53-.353-.909-.683-1.138-.332-.233-.726-.3-1.182-.201zm1.745 6.582c-1.27.275-2.339.14-3.206-.406s-1.44-1.461-1.719-2.745c-.286-1.322-.178-2.415.324-3.278.506-.868 1.343-1.429 2.51-1.682 1.115-.242 2.052-.112 2.811.388.758.501 1.259 1.311 1.502 2.43l.227 1.045-5.089 1.104c.156.606.441 1.044.854 1.314.414.27.926.339 1.538.206.475-.103.914-.25 1.316-.44.402-.191.81-.444 1.224-.761l.361 1.666c-.336.27-.708.496-1.116.678-.408.187-.92.347-1.537.481zm9.826-3.927l-1.019-4.7-1.617.35c.073.901.09 1.767.054 2.597-.032.83-.155 1.627-.368 2.393l2.95-.64zm4.265 3.686l-1.934.419-.613-2.83-5.308 1.151.614 2.83-1.934.42-.955-4.404.664-.144c.299-.799.486-1.765.56-2.9.075-1.134.024-2.401-.152-3.802l5.576-1.209 1.369 6.316 1.158-.251.955 4.404zm1.394-11.527l.676 3.12c.072.329.192 1.145.362 2.448l2.441-6.322 2.59-.562 1.711 7.89-2.081.452-.683-3.148c-.122-.56-.246-1.36-.373-2.402l-2.431 6.306-2.583.56-1.711-7.89 2.082-.452zm10.776-2.337l.658 3.035 3.007-.652-.658-3.035 2.152-.467 1.711 7.89-2.152.467-.706-3.253-3.006.652.705 3.253-2.152.467-1.711-7.89 2.152-.467zm11.274-.997c-.456.099-.782.323-.978.67-.196.344-.256.785-.178 1.325l3.02-.655c-.124-.53-.352-.909-.682-1.138-.332-.233-.726-.301-1.182-.202zm1.745 6.582c-1.27.276-2.339.141-3.206-.405s-1.44-1.461-1.719-2.746c-.286-1.322-.178-2.414.324-3.277.506-.868 1.343-1.429 2.51-1.682 1.115-.242 2.052-.113 2.811.388.758.5 1.259 1.31 1.502 2.43l.227 1.045-5.089 1.103c.156.607.441 1.045.854 1.315.414.27.926.339 1.538.206.475-.103.913-.25 1.316-.441.402-.19.81-.444 1.224-.76l.361 1.665c-.336.27-.708.496-1.117.678-.407.187-.919.348-1.536.481zm5.668-9.638l.659 3.035 3.006-.652-.658-3.035 2.152-.467 1.712 7.89-2.153.467-.706-3.253-3.006.652.706 3.253-2.153.467-1.711-7.89 2.152-.467zm9.789-2.123l.676 3.119c.072.33.192 1.146.361 2.449l2.442-6.323 2.59-.561 1.711 7.89-2.082.451-.682-3.147c-.122-.56-.246-1.361-.374-2.402l-2.43 6.306-2.583.56-1.711-7.89 2.082-.452zm11.534 5.76l-2.329.505 1.448-3.58c-.554-.102-1.006-.324-1.356-.667-.346-.344-.577-.786-.694-1.327-.166-.762-.011-1.422.465-1.978.48-.557 1.214-.943 2.202-1.157l3.67-.796 1.711 7.89-2.153.467-.636-2.936-1.186.257-1.142 3.322zm-.818-5.513a.93.93 0 00.556.693c.299.127.657.145 1.076.054l1.2-.26-.432-1.99-1.475.32c-.353.076-.611.224-.776.442a.862.862 0 00-.149.741zm-149.515 58.731c-2.456.533-3.977-.549-4.561-3.245-.291-1.341-.179-2.437.336-3.287.514-.856 1.394-1.418 2.641-1.689.913-.198 1.77-.197 2.573.004l-.274 1.803a10.17 10.17 0 00-1.018-.126 3.022 3.022 0 00-.904.055c-1.12.243-1.507 1.16-1.162 2.75.334 1.543 1.061 2.193 2.181 1.95a3.99 3.99 0 001.115-.411c.329-.19.644-.44.946-.752l.399 1.842c-.3.296-.62.526-.959.688-.334.161-.772.301-1.313.418zm11.998-11.011l2.371-.515-2.306 4.461 4.293 3.37-2.442.529-4.093-3.302.868 4.002-2.153.467-1.711-7.89 2.152-.467.832 3.832 2.189-4.487zm6.632 2.677c.17.781.425 1.344.765 1.689.346.344.808.453 1.387.327.574-.124.943-.411 1.106-.861.168-.455.166-1.075-.004-1.861-.17-.781-.424-1.339-.763-1.674-.338-.336-.797-.441-1.376-.315-.574.124-.945.409-1.115.855-.17.441-.17 1.054 0 1.84zm5.455-1.183c.279 1.284.158 2.362-.362 3.234-.521.871-1.385 1.438-2.594 1.7-.758.165-1.462.145-2.112-.059a3.409 3.409 0 01-1.644-1.143c-.446-.554-.758-1.245-.938-2.073-.279-1.289-.16-2.364.357-3.225.518-.861 1.386-1.424 2.605-1.688.757-.165 1.461-.145 2.111.059.65.204 1.198.58 1.642 1.129.444.549.756 1.238.935 2.066zm3.368-4.846l.658 3.034 3.007-.652-.659-3.034 2.153-.467 1.711 7.89-2.152.467-.706-3.254-3.006.652.705 3.254-2.152.467-1.712-7.891 2.153-.466zm12.652 5.665c-2.456.532-3.976-.549-4.561-3.245-.291-1.341-.179-2.437.336-3.288.514-.855 1.395-1.418 2.642-1.688.912-.198 1.77-.197 2.572.003l-.274 1.804a10.455 10.455 0 00-1.018-.127 3.055 3.055 0 00-.904.056c-1.12.243-1.507 1.159-1.162 2.75.335 1.543 1.062 2.193 2.182 1.95.414-.09.785-.227 1.115-.412a4.34 4.34 0 00.945-.752l.4 1.842c-.301.297-.62.526-.96.689-.334.161-.772.3-1.313.418zm1.653-8.768l2.357-.511 2.452 4.116c.21.358.396.796.558 1.312l.042-.009a6.193 6.193 0 01.007-1.435l.498-4.756 2.307-.5-1.408 9.623c-.127.89-.431 1.601-.911 2.134-.476.532-1.093.88-1.85 1.044-.372.081-.745.12-1.12.117l-.371-1.708a3.78 3.78 0 00.867-.091c.381-.083.688-.273.919-.569.237-.293.384-.692.442-1.197l.043-.416-4.832-7.154zm18.422 4.266l-2.152.467-1.361-6.274-1.983.43c.232 1.797.334 3.154.307 4.071-.029.913-.182 1.604-.46 2.073-.274.463-.702.758-1.286.885-.498.108-.924.121-1.277.04l-.373-1.722c.251.044.492.041.722-.009.268-.058.45-.299.545-.724.1-.425.123-1.103.069-2.032-.05-.935-.194-2.202-.432-3.8l5.97-1.295 1.711 7.89zm3.657-5.862l1.518-.33c1.213-.263 2.154-.265 2.821-.006.667.26 1.085.78 1.255 1.561.363 1.675-.618 2.764-2.942 3.268l-3.754.815-1.712-7.89 2.153-.467.661 3.049zm3.447 1.72c-.066-.306-.236-.501-.511-.584-.274-.083-.653-.072-1.138.033l-1.475.32.404 1.863 1.503-.326c.956-.207 1.361-.643 1.217-1.306zm9.435-7.707l.35 1.617-2.583.56 1.361 6.274-2.153.467-1.36-6.274-2.59.561-.351-1.616 7.326-1.589zm8.486 6.421l-.649-.982-.057.012c-.263.535-.568.934-.915 1.196-.344.257-.823.452-1.44.586-.757.164-1.402.077-1.933-.261-.527-.339-.877-.908-1.05-1.708-.182-.837-.024-1.517.474-2.039.501-.527 1.338-.94 2.509-1.239l1.36-.339-.075-.346c-.173-.8-.669-1.111-1.488-.933-.63.137-1.33.488-2.099 1.054l-1.028-1.3c.805-.672 1.76-1.128 2.866-1.367 1.058-.23 1.92-.176 2.585.163.664.339 1.099.979 1.303 1.919l1.14 5.258-1.503.326zm-1.428-3.518l-.827.209c-.622.155-1.063.369-1.324.642-.261.273-.345.622-.253 1.045.131.607.545.835 1.241.684.499-.108.866-.338 1.1-.689.239-.353.307-.766.203-1.241l-.14-.65zm5.884-5.71l.658 3.035 3.007-.652-.658-3.035 2.152-.467 1.711 7.891-2.152.466-.706-3.253-3.006.652.706 3.253-2.153.467-1.711-7.89 2.152-.467zm14.235-3.087l.35 1.616-2.583.56 1.361 6.274-2.153.467-1.36-6.274-2.59.562-.351-1.616 7.326-1.589zm4.331 3.177c.17.781.425 1.343.765 1.688.346.344.808.453 1.387.328.574-.125.943-.412 1.106-.861.168-.455.166-1.075-.004-1.861-.17-.781-.424-1.339-.763-1.675-.338-.335-.797-.44-1.376-.315-.574.125-.946.41-1.115.856-.17.44-.17 1.054 0 1.84zm5.455-1.184c.279 1.285.158 2.363-.362 3.234-.521.872-1.385 1.439-2.594 1.701-.758.164-1.462.144-2.112-.059a3.41 3.41 0 01-1.644-1.144c-.446-.554-.758-1.244-.938-2.072-.279-1.29-.16-2.365.357-3.226.518-.861 1.386-1.423 2.605-1.688.757-.164 1.461-.144 2.111.06.65.203 1.198.58 1.642 1.129.444.549.756 1.237.935 2.065zm12.87 1.354l-2.011.437-1.348-6.218-.018.462c-.039 1.048-.105 1.848-.197 2.4l-.632 3.832-1.531.332-2.19-3.249c-.315-.474-.689-1.154-1.122-2.04l-.239-.451 1.349 6.217-2.004.435-1.712-7.89 2.965-.643 2.085 3.073c.219.331.439.72.659 1.165.224.443.394.828.508 1.153.003-.74.013-1.271.031-1.596.022-.33.057-.635.104-.916.048-.282.266-1.533.656-3.756l2.936-.637 1.711 7.89zm-145.358 46.823c.169.781.424 1.344.765 1.689.345.344.808.453 1.386.327.574-.124.943-.411 1.107-.86.167-.455.165-1.076-.005-1.861-.169-.781-.423-1.34-.762-1.675-.339-.335-.798-.44-1.376-.315-.574.125-.946.41-1.115.855-.171.441-.171 1.055 0 1.84zm5.455-1.183c.279 1.285.158 2.363-.363 3.234-.52.871-1.385 1.438-2.594 1.701-.757.164-1.461.144-2.111-.06a3.4 3.4 0 01-1.645-1.143c-.445-.554-.758-1.245-.937-2.073-.28-1.289-.161-2.364.357-3.225.518-.861 1.386-1.424 2.604-1.688.758-.164 1.462-.145 2.112.059.65.204 1.197.581 1.641 1.13.444.549.756 1.237.936 2.065zm7.743-5.795l.35 1.616-2.583.56 1.361 6.274-2.152.467-1.361-6.274-2.59.562-.351-1.616 7.326-1.589zm6.71 6.954c-2.456.532-3.976-.549-4.561-3.245-.291-1.341-.179-2.437.336-3.288.514-.855 1.395-1.418 2.641-1.688.913-.198 1.771-.197 2.573.004l-.274 1.803a10.493 10.493 0 00-1.018-.127 3.055 3.055 0 00-.904.056c-1.12.243-1.507 1.159-1.162 2.75.334 1.543 1.062 2.193 2.181 1.95.414-.09.786-.227 1.115-.412a4.32 4.32 0 00.946-.752l.399 1.842c-.3.297-.62.527-.959.689-.334.161-.772.3-1.313.418zm7.954-10.135l2.372-.514-2.306 4.461 4.292 3.369-2.442.53-4.093-3.302.868 4.002-2.152.466-1.712-7.89 2.153-.467.831 3.833 2.189-4.488zm10.787 5.922l-.649-.982-.056.012c-.264.535-.569.934-.916 1.196-.343.257-.823.452-1.439.586-.758.164-1.402.077-1.934-.261-.526-.339-.877-.908-1.05-1.708-.182-.838-.024-1.517.474-2.039.501-.527 1.338-.94 2.51-1.239l1.36-.339-.075-.346c-.174-.8-.67-1.111-1.488-.933-.631.136-1.331.488-2.1 1.054l-1.028-1.3c.805-.672 1.761-1.128 2.866-1.368 1.059-.229 1.92-.175 2.585.164.665.339 1.099.978 1.303 1.919l1.14 5.258-1.503.326zm-1.428-3.518l-.826.209c-.622.155-1.063.368-1.324.642-.261.273-.346.622-.254 1.045.132.607.546.835 1.242.684.499-.108.865-.338 1.099-.689.239-.353.307-.766.204-1.242l-.141-.649zm5.885-5.71l.658 3.035 3.006-.652-.658-3.035 2.153-.467 1.711 7.89-2.153.467-.705-3.253-3.007.652.706 3.253-2.152.467-1.712-7.89 2.153-.467zm9.788-2.123l.677 3.12c.071.329.191 1.145.361 2.448l2.441-6.322 2.59-.562 1.712 7.89-2.082.452-.683-3.148c-.121-.56-.246-1.36-.373-2.402l-2.431 6.306-2.583.56-1.711-7.89 2.082-.452zm14.699 5.221c-.927.201-1.727.023-2.4-.536l-.113.025c.218.642.339 1.015.361 1.118l.694 3.197-2.153.467-2.464-11.362 1.75-.38.525.958.099-.022c.334-.89.995-1.442 1.983-1.656.932-.202 1.739-.001 2.422.605.683.605 1.164 1.548 1.441 2.828.183.842.217 1.601.102 2.276-.11.674-.358 1.223-.744 1.646-.386.424-.887.703-1.503.836zm-2.036-6.319c-.532.115-.884.364-1.057.746-.174.378-.185.944-.031 1.699l.051.233c.183.847.44 1.427.769 1.74.333.311.773.408 1.319.29.964-.209 1.274-1.109.929-2.699-.168-.777-.414-1.332-.738-1.665-.32-.34-.734-.455-1.242-.344zm4.267-2.574l2.357-.511 2.452 4.116c.211.359.397.796.558 1.313l.042-.009a6.193 6.193 0 01.007-1.435l.498-4.756 2.308-.501-1.408 9.623c-.127.89-.431 1.601-.912 2.134-.476.532-1.092.88-1.85 1.044-.372.081-.745.12-1.12.118l-.37-1.708c.272.005.561-.026.867-.092.381-.083.687-.272.918-.569.237-.293.385-.692.443-1.197l.042-.416-4.832-7.154zm11.729-2.543l.676 3.119c.072.329.192 1.145.362 2.449l2.441-6.323 2.59-.562 1.711 7.89-2.081.452-.683-3.148c-.122-.56-.246-1.36-.373-2.402l-2.431 6.306-2.583.56-1.711-7.89 2.082-.451zm4.698-4.574c.101.9-.091 1.614-.577 2.143-.488.524-1.272.904-2.354 1.138-1.116.242-1.983.229-2.603-.041-.615-.27-1.055-.855-1.319-1.753l1.927-.418c.138.477.332.792.582.945.253.147.651.162 1.192.044.475-.103.805-.285.989-.547.189-.267.26-.63.215-1.088l1.948-.423zm10.454 1.287l.35 1.616-2.583.561 1.361 6.274-2.152.466-1.361-6.274-2.59.562-.351-1.616 7.326-1.589zm5.331.292c-.456.099-.782.323-.977.67-.197.344-.256.785-.179 1.325l3.021-.655c-.125-.53-.353-.909-.683-1.138-.331-.233-.725-.301-1.182-.202zm1.746 6.582c-1.271.276-2.339.141-3.207-.405-.867-.546-1.44-1.461-1.718-2.746-.287-1.322-.179-2.414.323-3.277.507-.868 1.343-1.429 2.51-1.682 1.115-.242 2.052-.113 2.811.388.759.5 1.259 1.31 1.502 2.43l.227 1.045-5.088 1.103c.156.607.44 1.045.854 1.315.413.27.925.339 1.537.206.475-.103.914-.25 1.316-.441.402-.19.81-.444 1.224-.76l.361 1.665c-.335.27-.707.496-1.116.678-.408.187-.92.348-1.536.481zm17.683-9.399c.263 1.214.267 2.279.013 3.197a4.021 4.021 0 01-1.501 2.21l3.086 2.234-2.802.608-2.393-1.905-.163.036c-1.581.342-2.894.147-3.94-.587-1.046-.734-1.755-1.959-2.127-3.676-.373-1.718-.234-3.12.417-4.207.655-1.093 1.775-1.811 3.361-2.155 1.585-.344 2.896-.15 3.931.581 1.04.73 1.746 1.952 2.118 3.664zm-7.531 1.633c.25 1.153.657 1.974 1.221 2.462.565.489 1.282.638 2.152.45 1.746-.379 2.367-1.728 1.864-4.047-.504-2.325-1.624-3.299-3.36-2.922-.871.189-1.463.625-1.778 1.309-.316.68-.349 1.596-.099 2.748zm12.023-3.198l.706-.154c.692-.15 1.177-.376 1.456-.678.28-.301.366-.699.259-1.193-.106-.49-.351-.801-.735-.935-.379-.134-.921-.125-1.627.028l-.663.144.604 2.788zm.386 1.778l.859 3.959-2.188.475-2.238-10.318 3.007-.652c1.402-.304 2.495-.273 3.279.094.783.362 1.287 1.063 1.512 2.103a2.815 2.815 0 01-.149 1.732c-.232.543-.624 1.015-1.178 1.415a429.137 429.137 0 004.01 3.838l-2.428.526-3.322-3.425-1.164.253zm6.984-.503l-.382-1.764 3.79-.822.382 1.764-3.79.822zm9.757-7.244l2.371-.514-2.306 4.461 4.293 3.369-2.442.53-4.093-3.302.868 4.001-2.153.467-1.711-7.89 2.152-.467.831 3.832 2.19-4.487zm6.632 2.678c.169.781.425 1.344.765 1.688.346.344.808.453 1.387.328.574-.125.942-.412 1.106-.861.167-.455.166-1.075-.005-1.861-.169-.781-.423-1.339-.762-1.675-.339-.335-.797-.44-1.376-.314-.574.124-.946.409-1.115.855-.17.441-.17 1.054 0 1.84zm5.455-1.184c.279 1.285.158 2.363-.362 3.234-.521.872-1.385 1.439-2.595 1.701-.757.164-1.461.144-2.111-.059a3.418 3.418 0 01-1.645-1.144c-.445-.553-.757-1.244-.937-2.072-.279-1.289-.16-2.365.357-3.226.518-.861 1.386-1.423 2.605-1.688.757-.164 1.461-.144 2.111.06.65.203 1.197.58 1.642 1.129.444.549.756 1.237.935 2.065zm7.525.866l-1.019-4.7-1.616.35c.072.901.09 1.767.053 2.597a10.34 10.34 0 01-.368 2.393l2.95-.64zm4.265 3.686l-1.933.419-.614-2.83-5.307 1.151.614 2.83-1.934.42-.955-4.404.663-.144c.3-.799.487-1.766.561-2.9.074-1.134.023-2.402-.152-3.802l5.575-1.209 1.37 6.316 1.157-.251.955 4.404zm.501-4.129c-.085-.395-.044-.717.123-.965.168-.248.454-.416.859-.504.391-.084.714-.046.971.115.261.16.434.433.517.819.081.371.036.689-.133.952-.171.259-.449.43-.834.514-.396.085-.724.048-.985-.112-.263-.165-.435-.437-.518-.819zm-1.264-5.829c-.086-.395-.045-.717.123-.965.168-.248.454-.416.859-.504.39-.085.714-.047.97.115.262.16.434.433.518.818.083.381.036.702-.139.962-.171.253-.448.422-.829.504-.395.086-.723.049-.985-.111-.261-.16-.433-.433-.517-.819z"/><defs><clipPath id="fi"><path transform="rotate(-12.939 1579.557 -715.047)" d="M0 0h170.272v170.272H0z"/></clipPath></defs></svg></svg>